<?xml version="1.0" encoding="UTF-8" standalone="no"?><svg xmlns="http://www.w3.org/2000/svg" xmlns:xlink="http://www.w3.org/1999/xlink" contentScriptType="application/ecmascript" contentStyleType="text/css" height="1429px" preserveAspectRatio="none" style="width:683px;height:1429px;" version="1.1" viewBox="0 0 683 1429" width="683px" zoomAndPan="magnify"><defs><filter height="300%" id="f1k8cbqzqinr4j" width="300%" x="-1" y="-1"><feGaussianBlur result="blurOut" stdDeviation="2.0"/><feColorMatrix in="blurOut" result="blurOut2" type="matrix" values="0 0 0 0 0 0 0 0 0 0 0 0 0 0 0 0 0 0 .4 0"/><feOffset dx="4.0" dy="4.0" in="blurOut2" result="blurOut3"/><feBlend in="SourceGraphic" in2="blurOut3" mode="normal"/></filter></defs><g><rect fill="#FEFECE" filter="url(#f1k8cbqzqinr4j)" height="36.2969" rx="12.5" ry="12.5" style="stroke:#A80036;stroke-width:1.5;" width="82" x="10" y="695.5625"/><text fill="#000000" font-family="sans-serif" font-size="14" lengthAdjust="spacingAndGlyphs" textLength="62" x="20" y="718.5576">EnerMon</text><rect fill="#FEFECE" filter="url(#f1k8cbqzqinr4j)" height="36.2969" rx="12.5" ry="12.5" style="stroke:#A80036;stroke-width:1.5;" width="96" x="142" y="526.6719"/><text fill="#000000" font-family="sans-serif" font-size="14" lengthAdjust="spacingAndGlyphs" textLength="76" x="152" y="549.667">Dashboard</text><rect fill="#FEFECE" filter="url(#f1k8cbqzqinr4j)" height="36.2969" rx="12.5" ry="12.5" style="stroke:#A80036;stroke-width:1.5;" width="94" x="288" y="76.2969"/><text fill="#000000" font-family="sans-serif" font-size="14" lengthAdjust="spacingAndGlyphs" textLength="74" x="298" y="99.292">collections</text><rect fill="#FEFECE" filter="url(#f1k8cbqzqinr4j)" height="36.2969" rx="12.5" ry="12.5" style="stroke:#A80036;stroke-width:1.5;" width="102" x="432" y="20"/><text fill="#000000" font-family="sans-serif" font-size="14" lengthAdjust="spacingAndGlyphs" textLength="82" x="442" y="42.9951">dashboards</text><path d="M382,94.4453 L392,94.4453 C407,94.4453 407,38.1484 422,38.1484 L432,38.1484 " fill="none" style="stroke:#A80036;stroke-width:1.0;"/><rect fill="#FEFECE" filter="url(#f1k8cbqzqinr4j)" height="36.2969" rx="12.5" ry="12.5" style="stroke:#A80036;stroke-width:1.5;" width="71" x="432" y="76.2969"/><text fill="#000000" font-family="sans-serif" font-size="14" lengthAdjust="spacingAndGlyphs" textLength="51" x="442" y="99.292">radatas</text><path d="M382,94.4453 L392,94.4453 C407,94.4453 407,94.4453 422,94.4453 L432,94.4453 " fill="none" style="stroke:#A80036;stroke-width:1.0;"/><rect fill="#FEFECE" filter="url(#f1k8cbqzqinr4j)" height="36.2969" rx="12.5" ry="12.5" style="stroke:#A80036;stroke-width:1.5;" width="107" x="432" y="132.5938"/><text fill="#000000" font-family="sans-serif" font-size="14" lengthAdjust="spacingAndGlyphs" textLength="87" x="442" y="155.5889">coolingloads</text><path d="M382,94.4453 L392,94.4453 C407,94.4453 407,150.7422 422,150.7422 L432,150.7422 " fill="none" style="stroke:#A80036;stroke-width:1.0;"/><path d="M238,544.8203 L248,544.8203 C263,544.8203 263,94.4453 278,94.4453 L288,94.4453 " fill="none" style="stroke:#A80036;stroke-width:1.0;"/><rect fill="#FEFECE" filter="url(#f1k8cbqzqinr4j)" height="36.2969" rx="12.5" ry="12.5" style="stroke:#A80036;stroke-width:1.5;" width="143" x="288" y="470.375"/><text fill="#000000" font-family="sans-serif" font-size="14" lengthAdjust="spacingAndGlyphs" textLength="123" x="298" y="493.3701">tab1 - HK Portfolio</text><rect fill="#FEFECE" filter="url(#f1k8cbqzqinr4j)" height="36.2969" rx="12.5" ry="12.5" style="stroke:#A80036;stroke-width:1.5;" width="90" x="481" y="188.8906"/><text fill="#000000" font-family="sans-serif" font-size="14" lengthAdjust="spacingAndGlyphs" textLength="70" x="491" y="211.8857">getChartB</text><path d="M431,488.5234 L441,488.5234 C456,488.5234 456,207.0391 471,207.0391 L481,207.0391 " fill="none" style="stroke:#A80036;stroke-width:1.0;"/><rect fill="#FEFECE" filter="url(#f1k8cbqzqinr4j)" height="36.2969" rx="12.5" ry="12.5" style="stroke:#A80036;stroke-width:1.5;" width="99" x="481" y="245.1875"/><text fill="#000000" font-family="sans-serif" font-size="14" lengthAdjust="spacingAndGlyphs" textLength="79" x="491" y="268.1826">getChartB2</text><path d="M431,488.5234 L441,488.5234 C456,488.5234 456,263.3359 471,263.3359 L481,263.3359 " fill="none" style="stroke:#A80036;stroke-width:1.0;"/><rect fill="#FEFECE" filter="url(#f1k8cbqzqinr4j)" height="36.2969" rx="12.5" ry="12.5" style="stroke:#A80036;stroke-width:1.5;" width="140" x="481" y="301.4844"/><text fill="#000000" font-family="sans-serif" font-size="14" lengthAdjust="spacingAndGlyphs" textLength="120" x="491" y="324.4795">getChartCYearly2</text><path d="M431,488.5234 L441,488.5234 C456,488.5234 456,319.6328 471,319.6328 L481,319.6328 " fill="none" style="stroke:#A80036;stroke-width:1.0;"/><rect fill="#FEFECE" filter="url(#f1k8cbqzqinr4j)" height="36.2969" rx="12.5" ry="12.5" style="stroke:#A80036;stroke-width:1.5;" width="153" x="481" y="357.7813"/><text fill="#000000" font-family="sans-serif" font-size="14" lengthAdjust="spacingAndGlyphs" textLength="133" x="491" y="380.7764">getChartCMonthly1</text><path d="M431,488.5234 L441,488.5234 C456,488.5234 456,375.9297 471,375.9297 L481,375.9297 " fill="none" style="stroke:#A80036;stroke-width:1.0;"/><rect fill="#FEFECE" filter="url(#f1k8cbqzqinr4j)" height="36.2969" rx="12.5" ry="12.5" style="stroke:#A80036;stroke-width:1.5;" width="153" x="481" y="414.0781"/><text fill="#000000" font-family="sans-serif" font-size="14" lengthAdjust="spacingAndGlyphs" textLength="133" x="491" y="437.0732">getChartCMonthly2</text><path d="M431,488.5234 L441,488.5234 C456,488.5234 456,432.2266 471,432.2266 L481,432.2266 " fill="none" style="stroke:#A80036;stroke-width:1.0;"/><rect fill="#FEFECE" filter="url(#f1k8cbqzqinr4j)" height="36.2969" rx="12.5" ry="12.5" style="stroke:#A80036;stroke-width:1.5;" width="150" x="481" y="470.375"/><text fill="#000000" font-family="sans-serif" font-size="14" lengthAdjust="spacingAndGlyphs" textLength="130" x="491" y="493.3701">getChartCYearly(1)</text><path d="M431,488.5234 L441,488.5234 C456,488.5234 456,488.5234 471,488.5234 L481,488.5234 " fill="none" style="stroke:#A80036;stroke-width:1.0;"/><rect fill="#FEFECE" filter="url(#f1k8cbqzqinr4j)" height="36.2969" rx="12.5" ry="12.5" style="stroke:#A80036;stroke-width:1.5;" width="150" x="481" y="526.6719"/><text fill="#000000" font-family="sans-serif" font-size="14" lengthAdjust="spacingAndGlyphs" textLength="130" x="491" y="549.667">getChartCYearly(2)</text><path d="M431,488.5234 L441,488.5234 C456,488.5234 456,544.8203 471,544.8203 L481,544.8203 " fill="none" style="stroke:#A80036;stroke-width:1.0;"/><rect fill="#FEFECE" filter="url(#f1k8cbqzqinr4j)" height="36.2969" rx="12.5" ry="12.5" style="stroke:#A80036;stroke-width:1.5;" width="154" x="481" y="582.9688"/><text fill="#000000" font-family="sans-serif" font-size="14" lengthAdjust="spacingAndGlyphs" textLength="134" x="491" y="605.9639">getChartDYearlyWS</text><path d="M431,488.5234 L441,488.5234 C456,488.5234 456,601.1172 471,601.1172 L481,601.1172 " fill="none" style="stroke:#A80036;stroke-width:1.0;"/><rect fill="#FEFECE" filter="url(#f1k8cbqzqinr4j)" height="36.2969" rx="12.5" ry="12.5" style="stroke:#A80036;stroke-width:1.5;" width="176" x="481" y="639.2656"/><text fill="#000000" font-family="sans-serif" font-size="14" lengthAdjust="spacingAndGlyphs" textLength="156" x="491" y="662.2607">getChartDMonthlyWS1</text><path d="M431,488.5234 L441,488.5234 C456,488.5234 456,657.4141 471,657.4141 L481,657.4141 " fill="none" style="stroke:#A80036;stroke-width:1.0;"/><rect fill="#FEFECE" filter="url(#f1k8cbqzqinr4j)" height="36.2969" rx="12.5" ry="12.5" style="stroke:#A80036;stroke-width:1.5;" width="176" x="481" y="695.5625"/><text fill="#000000" font-family="sans-serif" font-size="14" lengthAdjust="spacingAndGlyphs" textLength="156" x="491" y="718.5576">getChartDMonthlyWS2</text><path d="M431,488.5234 L441,488.5234 C456,488.5234 456,713.7109 471,713.7109 L481,713.7109 " fill="none" style="stroke:#A80036;stroke-width:1.0;"/><rect fill="#FEFECE" filter="url(#f1k8cbqzqinr4j)" height="36.2969" rx="12.5" ry="12.5" style="stroke:#A80036;stroke-width:1.5;" width="88" x="481" y="751.8594"/><text fill="#000000" font-family="sans-serif" font-size="14" lengthAdjust="spacingAndGlyphs" textLength="68" x="491" y="774.8545">getChartF</text><path d="M431,488.5234 L441,488.5234 C456,488.5234 456,770.0078 471,770.0078 L481,770.0078 " fill="none" style="stroke:#A80036;stroke-width:1.0;"/><path d="M238,544.8203 L248,544.8203 C263,544.8203 263,488.5234 278,488.5234 L288,488.5234 " fill="none" style="stroke:#A80036;stroke-width:1.0;"/><rect fill="#FEFECE" filter="url(#f1k8cbqzqinr4j)" height="36.2969" rx="12.5" ry="12.5" style="stroke:#A80036;stroke-width:1.5;" width="85" x="288" y="864.4531"/><text fill="#000000" font-family="sans-serif" font-size="14" lengthAdjust="spacingAndGlyphs" textLength="65" x="298" y="887.4482">tab2 - KPI</text><rect fill="#FEFECE" filter="url(#f1k8cbqzqinr4j)" height="36.2969" rx="12.5" ry="12.5" style="stroke:#A80036;stroke-width:1.5;" width="105" x="423" y="808.1563"/><text fill="#000000" font-family="sans-serif" font-size="14" lengthAdjust="spacingAndGlyphs" textLength="85" x="433" y="831.1514">getKpiYearly</text><path d="M373,882.6016 L383,882.6016 C398,882.6016 398,826.3047 413,826.3047 L423,826.3047 " fill="none" style="stroke:#A80036;stroke-width:1.0;"/><rect fill="#FEFECE" filter="url(#f1k8cbqzqinr4j)" height="36.2969" rx="12.5" ry="12.5" style="stroke:#A80036;stroke-width:1.5;" width="127" x="423" y="864.4531"/><text fill="#000000" font-family="sans-serif" font-size="14" lengthAdjust="spacingAndGlyphs" textLength="107" x="433" y="887.4482">getKpiMonthly1</text><path d="M373,882.6016 L383,882.6016 C398,882.6016 398,882.6016 413,882.6016 L423,882.6016 " fill="none" style="stroke:#A80036;stroke-width:1.0;"/><rect fill="#FEFECE" filter="url(#f1k8cbqzqinr4j)" height="36.2969" rx="12.5" ry="12.5" style="stroke:#A80036;stroke-width:1.5;" width="127" x="423" y="920.75"/><text fill="#000000" font-family="sans-serif" font-size="14" lengthAdjust="spacingAndGlyphs" textLength="107" x="433" y="943.7451">getKpiMonthly2</text><path d="M373,882.6016 L383,882.6016 C398,882.6016 398,938.8984 413,938.8984 L423,938.8984 " fill="none" style="stroke:#A80036;stroke-width:1.0;"/><path d="M238,544.8203 L248,544.8203 C263,544.8203 263,882.6016 278,882.6016 L288,882.6016 " fill="none" style="stroke:#A80036;stroke-width:1.0;"/><rect fill="#FEFECE" filter="url(#f1k8cbqzqinr4j)" height="36.2969" rx="12.5" ry="12.5" style="stroke:#A80036;stroke-width:1.5;" width="183" x="288" y="1005.1953"/><text fill="#000000" font-family="sans-serif" font-size="14" lengthAdjust="spacingAndGlyphs" textLength="163" x="298" y="1028.1904">tab3 - Data Comparison</text><rect fill="#FEFECE" filter="url(#f1k8cbqzqinr4j)" height="36.2969" rx="12.5" ry="12.5" style="stroke:#A80036;stroke-width:1.5;" width="130" x="521" y="977.0469"/><text fill="#000000" font-family="sans-serif" font-size="14" lengthAdjust="spacingAndGlyphs" textLength="110" x="531" y="1000.042">getChartEYearly</text><path d="M471,1023.3438 L481,1023.3438 C496,1023.3438 496,995.1953 511,995.1953 L521,995.1953 " fill="none" style="stroke:#A80036;stroke-width:1.0;"/><rect fill="#FEFECE" filter="url(#f1k8cbqzqinr4j)" height="36.2969" rx="12.5" ry="12.5" style="stroke:#A80036;stroke-width:1.5;" width="143" x="521" y="1033.3438"/><text fill="#000000" font-family="sans-serif" font-size="14" lengthAdjust="spacingAndGlyphs" textLength="123" x="531" y="1056.3389">getChartEMonthly</text><path d="M471,1023.3438 L481,1023.3438 C496,1023.3438 496,1051.4922 511,1051.4922 L521,1051.4922 " fill="none" style="stroke:#A80036;stroke-width:1.0;"/><path d="M238,544.8203 L248,544.8203 C263,544.8203 263,1023.3438 278,1023.3438 L288,1023.3438 " fill="none" style="stroke:#A80036;stroke-width:1.0;"/><path d="M92,713.7109 L102,713.7109 C117,713.7109 117,544.8203 132,544.8203 L142,544.8203 " fill="none" style="stroke:#A80036;stroke-width:1.0;"/><rect fill="#FEFECE" filter="url(#f1k8cbqzqinr4j)" height="36.2969" rx="12.5" ry="12.5" style="stroke:#A80036;stroke-width:1.5;" width="75" x="142" y="1230.3828"/><text fill="#000000" font-family="sans-serif" font-size="14" lengthAdjust="spacingAndGlyphs" textLength="55" x="152" y="1253.3779">Analysis</text><rect fill="#FEFECE" filter="url(#f1k8cbqzqinr4j)" height="36.2969" rx="12.5" ry="12.5" style="stroke:#A80036;stroke-width:1.5;" width="94" x="267" y="1230.3828"/><text fill="#000000" font-family="sans-serif" font-size="14" lengthAdjust="spacingAndGlyphs" textLength="74" x="277" y="1253.3779">collections</text><rect fill="#FEFECE" filter="url(#f1k8cbqzqinr4j)" height="36.2969" rx="12.5" ry="12.5" style="stroke:#A80036;stroke-width:1.5;" width="113" x="411" y="1089.6406"/><text fill="#000000" font-family="sans-serif" font-size="14" lengthAdjust="spacingAndGlyphs" textLength="93" x="421" y="1112.6357">chillermonths</text><path d="M361,1248.5313 L371,1248.5313 C386,1248.5313 386,1107.7891 401,1107.7891 L411,1107.7891 " fill="none" style="stroke:#A80036;stroke-width:1.0;"/><rect fill="#FEFECE" filter="url(#f1k8cbqzqinr4j)" height="36.2969" rx="12.5" ry="12.5" style="stroke:#A80036;stroke-width:1.5;" width="92" x="411" y="1145.9375"/><text fill="#000000" font-family="sans-serif" font-size="14" lengthAdjust="spacingAndGlyphs" textLength="72" x="421" y="1168.9326">chillerdays</text><path d="M361,1248.5313 L371,1248.5313 C386,1248.5313 386,1164.0859 401,1164.0859 L411,1164.0859 " fill="none" style="stroke:#A80036;stroke-width:1.0;"/><rect fill="#FEFECE" filter="url(#f1k8cbqzqinr4j)" height="36.2969" rx="12.5" ry="12.5" style="stroke:#A80036;stroke-width:1.5;" width="100" x="411" y="1202.2344"/><text fill="#000000" font-family="sans-serif" font-size="14" lengthAdjust="spacingAndGlyphs" textLength="80" x="421" y="1225.2295">chillerhours</text><path d="M361,1248.5313 L371,1248.5313 C386,1248.5313 386,1220.3828 401,1220.3828 L411,1220.3828 " fill="none" style="stroke:#A80036;stroke-width:1.0;"/><rect fill="#FEFECE" filter="url(#f1k8cbqzqinr4j)" height="36.2969" rx="12.5" ry="12.5" style="stroke:#A80036;stroke-width:1.5;" width="101" x="411" y="1258.5313"/><text fill="#000000" font-family="sans-serif" font-size="14" lengthAdjust="spacingAndGlyphs" textLength="81" x="421" y="1281.5264">kwhmonths</text><path d="M361,1248.5313 L371,1248.5313 C386,1248.5313 386,1276.6797 401,1276.6797 L411,1276.6797 " fill="none" style="stroke:#A80036;stroke-width:1.0;"/><rect fill="#FEFECE" filter="url(#f1k8cbqzqinr4j)" height="36.2969" rx="12.5" ry="12.5" style="stroke:#A80036;stroke-width:1.5;" width="80" x="411" y="1314.8281"/><text fill="#000000" font-family="sans-serif" font-size="14" lengthAdjust="spacingAndGlyphs" textLength="60" x="421" y="1337.8232">kwhdays</text><path d="M361,1248.5313 L371,1248.5313 C386,1248.5313 386,1332.9766 401,1332.9766 L411,1332.9766 " fill="none" style="stroke:#A80036;stroke-width:1.0;"/><rect fill="#FEFECE" filter="url(#f1k8cbqzqinr4j)" height="36.2969" rx="12.5" ry="12.5" style="stroke:#A80036;stroke-width:1.5;" width="88" x="411" y="1371.125"/><text fill="#000000" font-family="sans-serif" font-size="14" lengthAdjust="spacingAndGlyphs" textLength="68" x="421" y="1394.1201">kwhhours</text><path d="M361,1248.5313 L371,1248.5313 C386,1248.5313 386,1389.2734 401,1389.2734 L411,1389.2734 " fill="none" style="stroke:#A80036;stroke-width:1.0;"/><path d="M217,1248.5313 L227,1248.5313 C242,1248.5313 242,1248.5313 257,1248.5313 L267,1248.5313 " fill="none" style="stroke:#A80036;stroke-width:1.0;"/><path d="M92,713.7109 L102,713.7109 C117,713.7109 117,1248.5313 132,1248.5313 L142,1248.5313 " fill="none" style="stroke:#A80036;stroke-width:1.0;"/><!--MD5=[8412c58b8e1f10ea1efe7371494cc478]
@startmindmap chart
* EnerMon
** Dashboard
*** collections
**** dashboards
**** radatas
**** coolingloads
*** tab1 - HK Portfolio
**** getChartB
**** getChartB2
**** getChartCYearly2
**** getChartCMonthly1
**** getChartCMonthly2
**** getChartCYearly(1)
**** getChartCYearly(2)
**** getChartDYearlyWS
**** getChartDMonthlyWS1
**** getChartDMonthlyWS2
**** getChartF
*** tab2 - KPI
**** getKpiYearly
**** getKpiMonthly1
**** getKpiMonthly2
*** tab3 - Data Comparison
**** getChartEYearly
**** getChartEMonthly
** Analysis
*** collections
**** chillermonths
**** chillerdays
**** chillerhours
**** kwhmonths
**** kwhdays
**** kwhhours
@endmindmap

PlantUML version 1.2020.22(Sun Dec 06 09:36:27 UTC 2020)
(GPL source distribution)
Java Runtime: OpenJDK Runtime Environment
JVM: OpenJDK 64-Bit Server VM
Default Encoding: UTF-8
Language: en
Country: null
--></g></svg>