<?xml version="1.0" encoding="UTF-8" standalone="no"?><svg xmlns="http://www.w3.org/2000/svg" xmlns:xlink="http://www.w3.org/1999/xlink" contentScriptType="application/ecmascript" contentStyleType="text/css" height="706px" preserveAspectRatio="none" style="width:852px;height:706px;" version="1.1" viewBox="0 0 852 706" width="852px" zoomAndPan="magnify"><defs><filter height="300%" id="f18co84u74dm9f" width="300%" x="-1" y="-1"><feGaussianBlur result="blurOut" stdDeviation="2.0"/><feColorMatrix in="blurOut" result="blurOut2" type="matrix" values="0 0 0 0 0 0 0 0 0 0 0 0 0 0 0 0 0 0 .4 0"/><feOffset dx="4.0" dy="4.0" in="blurOut2" result="blurOut3"/><feBlend in="SourceGraphic" in2="blurOut3" mode="normal"/></filter></defs><g><!--MD5=[6fc54556df0086ab557c9573a37c2469]
class kwhs--><rect codeLine="2" fill="#FEFECE" filter="url(#f18co84u74dm9f)" height="48" id="kwhs" style="stroke:#A80036;stroke-width:1.5;" width="63" x="28" y="21.5"/><ellipse cx="43" cy="37.5" fill="#A9DCDF" rx="11" ry="11" style="stroke:#A80036;stroke-width:1.0;"/><path d="M43.1094,32.8438 L41.9531,37.9219 L44.2813,37.9219 L43.1094,32.8438 Z M41.625,30.6094 L44.6094,30.6094 L47.9688,43 L45.5156,43 L44.75,39.9375 L41.4688,39.9375 L40.7188,43 L38.2813,43 L41.625,30.6094 Z " fill="#000000"/><text fill="#000000" font-family="sans-serif" font-size="12" font-style="italic" lengthAdjust="spacingAndGlyphs" textLength="31" x="57" y="41.6543">kwhs</text><line style="stroke:#A80036;stroke-width:1.5;" x1="29" x2="90" y1="53.5" y2="53.5"/><line style="stroke:#A80036;stroke-width:1.5;" x1="29" x2="90" y1="61.5" y2="61.5"/><rect fill="#FEFECE" filter="url(#f18co84u74dm9f)" height="33.6094" style="stroke:#A80036;stroke-width:1.5;" width="154" x="272.5" y="29.5"/><text fill="#000000" font-family="sans-serif" font-size="12" lengthAdjust="spacingAndGlyphs" textLength="81" x="309" y="42.6387">kwhs.rawKwh</text><line style="stroke:#A80036;stroke-width:1.0;" x1="272.5" x2="426.5" y1="47.4688" y2="47.4688"/><text fill="#000000" font-family="sans-serif" font-size="10" lengthAdjust="spacingAndGlyphs" textLength="27" x="277.5" y="58.751">step1</text><text fill="#000000" font-family="sans-serif" font-size="10" lengthAdjust="spacingAndGlyphs" textLength="107" x="314.5" y="58.751">ImportRawKwhToKwh</text><line style="stroke:#A80036;stroke-width:1.0;" x1="309.5" x2="309.5" y1="47.4688" y2="63.1094"/><rect fill="#FEFECE" filter="url(#f18co84u74dm9f)" height="33.6094" style="stroke:#A80036;stroke-width:1.5;" width="186" x="246.5" y="156"/><text fill="#000000" font-family="sans-serif" font-size="12" lengthAdjust="spacingAndGlyphs" textLength="125" x="277" y="169.1387">kwhs.processedKwh</text><line style="stroke:#A80036;stroke-width:1.0;" x1="246.5" x2="432.5" y1="173.9688" y2="173.9688"/><text fill="#000000" font-family="sans-serif" font-size="10" lengthAdjust="spacingAndGlyphs" textLength="27" x="251.5" y="185.251">step2</text><text fill="#000000" font-family="sans-serif" font-size="10" lengthAdjust="spacingAndGlyphs" textLength="139" x="288.5" y="185.251">UpdateProcessedKwhToKwh</text><line style="stroke:#A80036;stroke-width:1.0;" x1="283.5" x2="283.5" y1="173.9688" y2="189.6094"/><!--MD5=[1b3b4972f631404dea5979a2b74459a1]
class monthkwhs--><rect codeLine="11" fill="#FEFECE" filter="url(#f18co84u74dm9f)" height="48" id="monthkwhs" style="stroke:#A80036;stroke-width:1.5;" width="103" x="126" y="21.5"/><ellipse cx="141" cy="37.5" fill="#A9DCDF" rx="11" ry="11" style="stroke:#A80036;stroke-width:1.0;"/><path d="M141.1094,32.8438 L139.9531,37.9219 L142.2813,37.9219 L141.1094,32.8438 Z M139.625,30.6094 L142.6094,30.6094 L145.9688,43 L143.5156,43 L142.75,39.9375 L139.4688,39.9375 L138.7188,43 L136.2813,43 L139.625,30.6094 Z " fill="#000000"/><text fill="#000000" font-family="sans-serif" font-size="12" font-style="italic" lengthAdjust="spacingAndGlyphs" textLength="71" x="155" y="41.6543">monthkwhs</text><line style="stroke:#A80036;stroke-width:1.5;" x1="127" x2="228" y1="53.5" y2="53.5"/><line style="stroke:#A80036;stroke-width:1.5;" x1="127" x2="228" y1="61.5" y2="61.5"/><rect fill="#FEFECE" filter="url(#f18co84u74dm9f)" height="33.6094" style="stroke:#A80036;stroke-width:1.5;" width="236" x="216.5" y="260"/><text fill="#000000" font-family="sans-serif" font-size="12" lengthAdjust="spacingAndGlyphs" textLength="190" x="239.5" y="273.1387">monthkwhs.processedNumber</text><line style="stroke:#A80036;stroke-width:1.0;" x1="216.5" x2="452.5" y1="277.9688" y2="277.9688"/><text fill="#000000" font-family="sans-serif" font-size="10" lengthAdjust="spacingAndGlyphs" textLength="27" x="221.5" y="289.251">step3</text><text fill="#000000" font-family="sans-serif" font-size="10" lengthAdjust="spacingAndGlyphs" textLength="189" x="258.5" y="289.251">UpdateProcessedNumberToMonthKwh</text><line style="stroke:#A80036;stroke-width:1.0;" x1="253.5" x2="253.5" y1="277.9688" y2="293.6094"/><rect fill="#FEFECE" filter="url(#f18co84u74dm9f)" height="33.6094" style="stroke:#A80036;stroke-width:1.5;" width="226" x="221.5" y="360"/><text fill="#000000" font-family="sans-serif" font-size="12" lengthAdjust="spacingAndGlyphs" textLength="176" x="246.5" y="373.1387">monthkwhs.patchedNumber</text><line style="stroke:#A80036;stroke-width:1.0;" x1="221.5" x2="447.5" y1="377.9688" y2="377.9688"/><text fill="#000000" font-family="sans-serif" font-size="10" lengthAdjust="spacingAndGlyphs" textLength="27" x="226.5" y="389.251">step4</text><text fill="#000000" font-family="sans-serif" font-size="10" lengthAdjust="spacingAndGlyphs" textLength="179" x="263.5" y="389.251">UpdatePatchedNumberToMonthKwh</text><line style="stroke:#A80036;stroke-width:1.0;" x1="258.5" x2="258.5" y1="377.9688" y2="393.6094"/><polygon fill="#FEFECE" filter="url(#f18co84u74dm9f)" points="579.5,160,591.5,172,579.5,184,567.5,172,579.5,160" style="stroke:#A80036;stroke-width:1.5;"/><!--MD5=[81ae1f424392310f1c8e323d3a6a6965]
class chillerhours--><rect codeLine="22" fill="#FEFECE" filter="url(#f18co84u74dm9f)" height="48" id="chillerhours" style="stroke:#A80036;stroke-width:1.5;" width="105" x="7" y="148"/><ellipse cx="22" cy="164" fill="#A9DCDF" rx="11" ry="11" style="stroke:#A80036;stroke-width:1.0;"/><path d="M22.1094,159.3438 L20.9531,164.4219 L23.2813,164.4219 L22.1094,159.3438 Z M20.625,157.1094 L23.6094,157.1094 L26.9688,169.5 L24.5156,169.5 L23.75,166.4375 L20.4688,166.4375 L19.7188,169.5 L17.2813,169.5 L20.625,157.1094 Z " fill="#000000"/><text fill="#000000" font-family="sans-serif" font-size="12" font-style="italic" lengthAdjust="spacingAndGlyphs" textLength="73" x="36" y="168.1543">chillerhours</text><line style="stroke:#A80036;stroke-width:1.5;" x1="8" x2="111" y1="180" y2="180"/><line style="stroke:#A80036;stroke-width:1.5;" x1="8" x2="111" y1="188" y2="188"/><rect fill="#FEFECE" filter="url(#f18co84u74dm9f)" height="80.5313" style="stroke:#A80036;stroke-width:1.5;" width="166" x="496.5" y="7"/><text fill="#000000" font-family="sans-serif" font-size="12" lengthAdjust="spacingAndGlyphs" textLength="152" x="503.5" y="20.1387">chillerhours.coolingLoad</text><line style="stroke:#A80036;stroke-width:1.0;" x1="496.5" x2="662.5" y1="24.9688" y2="24.9688"/><text fill="#000000" font-family="sans-serif" font-size="10" lengthAdjust="spacingAndGlyphs" textLength="27" x="501.5" y="36.251">step5</text><text fill="#000000" font-family="sans-serif" font-size="10" lengthAdjust="spacingAndGlyphs" textLength="100" x="538.5" y="36.251">ImportTxtChillerdata</text><line style="stroke:#A80036;stroke-width:1.0;" x1="533.5" x2="533.5" y1="24.9688" y2="40.6094"/><line style="stroke:#A80036;stroke-width:1.0;" x1="496.5" x2="662.5" y1="40.6094" y2="40.6094"/><text fill="#000000" font-family="sans-serif" font-size="10" lengthAdjust="spacingAndGlyphs" textLength="27" x="501.5" y="51.8916">step6</text><text fill="#000000" font-family="sans-serif" font-size="10" lengthAdjust="spacingAndGlyphs" textLength="111" x="538.5" y="51.8916">ImportExcelChillerdata</text><line style="stroke:#A80036;stroke-width:1.0;" x1="533.5" x2="533.5" y1="40.6094" y2="56.25"/><line style="stroke:#A80036;stroke-width:1.0;" x1="496.5" x2="662.5" y1="56.25" y2="56.25"/><text fill="#000000" font-family="sans-serif" font-size="10" lengthAdjust="spacingAndGlyphs" textLength="27" x="501.5" y="67.5322">step7</text><text fill="#000000" font-family="sans-serif" font-size="10" lengthAdjust="spacingAndGlyphs" textLength="105" x="538.5" y="67.5322">Import3PPChillerdata</text><line style="stroke:#A80036;stroke-width:1.0;" x1="533.5" x2="533.5" y1="56.25" y2="71.8906"/><line style="stroke:#A80036;stroke-width:1.0;" x1="496.5" x2="662.5" y1="71.8906" y2="71.8906"/><text fill="#000000" font-family="sans-serif" font-size="10" lengthAdjust="spacingAndGlyphs" textLength="27" x="501.5" y="83.1729">step8</text><text fill="#000000" font-family="sans-serif" font-size="10" lengthAdjust="spacingAndGlyphs" textLength="107" x="538.5" y="83.1729">ImportHERChillerdata</text><line style="stroke:#A80036;stroke-width:1.0;" x1="533.5" x2="533.5" y1="71.8906" y2="87.5313"/><rect fill="#FEFECE" filter="url(#f18co84u74dm9f)" height="33.6094" style="stroke:#A80036;stroke-width:1.5;" width="161" x="504" y="260"/><text fill="#000000" font-family="sans-serif" font-size="12" lengthAdjust="spacingAndGlyphs" textLength="93" x="538" y="273.1387">chillerhours.R2</text><line style="stroke:#A80036;stroke-width:1.0;" x1="504" x2="665" y1="277.9688" y2="277.9688"/><text fill="#000000" font-family="sans-serif" font-size="10" lengthAdjust="spacingAndGlyphs" textLength="27" x="509" y="289.251">step9</text><text fill="#000000" font-family="sans-serif" font-size="10" lengthAdjust="spacingAndGlyphs" textLength="114" x="546" y="289.251">UpdateR2ToChillerHour</text><line style="stroke:#A80036;stroke-width:1.0;" x1="541" x2="541" y1="277.9688" y2="293.6094"/><rect fill="#FEFECE" filter="url(#f18co84u74dm9f)" height="33.6094" style="stroke:#A80036;stroke-width:1.5;" width="137" x="499" y="360"/><text fill="#000000" font-family="sans-serif" font-size="12" lengthAdjust="spacingAndGlyphs" textLength="66" x="534.5" y="373.1387">chillerdays</text><line style="stroke:#A80036;stroke-width:1.0;" x1="499" x2="636" y1="377.9688" y2="377.9688"/><text fill="#000000" font-family="sans-serif" font-size="10" lengthAdjust="spacingAndGlyphs" textLength="33" x="504" y="389.251">step10</text><text fill="#000000" font-family="sans-serif" font-size="10" lengthAdjust="spacingAndGlyphs" textLength="84" x="547" y="389.251">UpdateChillerday</text><line style="stroke:#A80036;stroke-width:1.0;" x1="542" x2="542" y1="377.9688" y2="393.6094"/><rect fill="#FEFECE" filter="url(#f18co84u74dm9f)" height="33.6094" style="stroke:#A80036;stroke-width:1.5;" width="151" x="687" y="360"/><text fill="#000000" font-family="sans-serif" font-size="12" lengthAdjust="spacingAndGlyphs" textLength="84" x="720.5" y="373.1387">chillermonths</text><line style="stroke:#A80036;stroke-width:1.0;" x1="687" x2="838" y1="377.9688" y2="377.9688"/><text fill="#000000" font-family="sans-serif" font-size="10" lengthAdjust="spacingAndGlyphs" textLength="33" x="692" y="389.251">step11</text><text fill="#000000" font-family="sans-serif" font-size="10" lengthAdjust="spacingAndGlyphs" textLength="98" x="735" y="389.251">UpdateChillermonth</text><line style="stroke:#A80036;stroke-width:1.0;" x1="730" x2="730" y1="377.9688" y2="393.6094"/><polygon fill="#FEFECE" filter="url(#f18co84u74dm9f)" points="548.5,456,560.5,468,548.5,480,536.5,468,548.5,456" style="stroke:#A80036;stroke-width:1.5;"/><rect fill="#FEFECE" filter="url(#f18co84u74dm9f)" height="49.25" style="stroke:#A80036;stroke-width:1.5;" width="137" x="383" y="544"/><text fill="#000000" font-family="sans-serif" font-size="12" lengthAdjust="spacingAndGlyphs" textLength="36" x="433.5" y="557.1387">ratios</text><line style="stroke:#A80036;stroke-width:1.0;" x1="383" x2="520" y1="561.9688" y2="561.9688"/><text fill="#000000" font-family="sans-serif" font-size="10" lengthAdjust="spacingAndGlyphs" textLength="33" x="388" y="573.251">step12</text><text fill="#000000" font-family="sans-serif" font-size="10" lengthAdjust="spacingAndGlyphs" textLength="84" x="431" y="573.251">ImportExcelRatio</text><line style="stroke:#A80036;stroke-width:1.0;" x1="426" x2="426" y1="561.9688" y2="577.6094"/><line style="stroke:#A80036;stroke-width:1.0;" x1="383" x2="520" y1="577.6094" y2="577.6094"/><text fill="#000000" font-family="sans-serif" font-size="10" lengthAdjust="spacingAndGlyphs" textLength="33" x="388" y="588.8916">step13</text><text fill="#000000" font-family="sans-serif" font-size="10" lengthAdjust="spacingAndGlyphs" textLength="73" x="431" y="588.8916">ImportSqlRatio</text><line style="stroke:#A80036;stroke-width:1.0;" x1="426" x2="426" y1="577.6094" y2="593.25"/><rect fill="#FEFECE" filter="url(#f18co84u74dm9f)" height="33.6094" style="stroke:#A80036;stroke-width:1.5;" width="149" x="571" y="551.5"/><text fill="#000000" font-family="sans-serif" font-size="12" lengthAdjust="spacingAndGlyphs" textLength="79" x="606" y="564.6387">coolingloads</text><line style="stroke:#A80036;stroke-width:1.0;" x1="571" x2="720" y1="569.4688" y2="569.4688"/><text fill="#000000" font-family="sans-serif" font-size="10" lengthAdjust="spacingAndGlyphs" textLength="33" x="576" y="580.751">step14</text><text fill="#000000" font-family="sans-serif" font-size="10" lengthAdjust="spacingAndGlyphs" textLength="96" x="619" y="580.751">UpdateCoolingLoad</text><line style="stroke:#A80036;stroke-width:1.0;" x1="614" x2="614" y1="569.4688" y2="585.1094"/><rect fill="#FEFECE" filter="url(#f18co84u74dm9f)" height="33.6094" style="stroke:#A80036;stroke-width:1.5;" width="142" x="102.5" y="659"/><text fill="#000000" font-family="sans-serif" font-size="12" lengthAdjust="spacingAndGlyphs" textLength="75" x="136" y="672.1387">dashboards</text><line style="stroke:#A80036;stroke-width:1.0;" x1="102.5" x2="244.5" y1="676.9688" y2="676.9688"/><text fill="#000000" font-family="sans-serif" font-size="10" lengthAdjust="spacingAndGlyphs" textLength="33" x="107.5" y="688.251">step15</text><text fill="#000000" font-family="sans-serif" font-size="10" lengthAdjust="spacingAndGlyphs" textLength="89" x="150.5" y="688.251">UpdateDashboard</text><line style="stroke:#A80036;stroke-width:1.0;" x1="145.5" x2="145.5" y1="676.9688" y2="692.6094"/><rect fill="#FEFECE" filter="url(#f18co84u74dm9f)" height="33.6094" style="stroke:#A80036;stroke-width:1.5;" width="132" x="295.5" y="659"/><text fill="#000000" font-family="sans-serif" font-size="12" lengthAdjust="spacingAndGlyphs" textLength="60" x="331.5" y="672.1387">kwhhours</text><line style="stroke:#A80036;stroke-width:1.0;" x1="295.5" x2="427.5" y1="676.9688" y2="676.9688"/><text fill="#000000" font-family="sans-serif" font-size="10" lengthAdjust="spacingAndGlyphs" textLength="33" x="300.5" y="688.251">step16</text><text fill="#000000" font-family="sans-serif" font-size="10" lengthAdjust="spacingAndGlyphs" textLength="79" x="343.5" y="688.251">UpdateKwhhour</text><line style="stroke:#A80036;stroke-width:1.0;" x1="338.5" x2="338.5" y1="676.9688" y2="692.6094"/><rect fill="#FEFECE" filter="url(#f18co84u74dm9f)" height="33.6094" style="stroke:#A80036;stroke-width:1.5;" width="128" x="478.5" y="659"/><text fill="#000000" font-family="sans-serif" font-size="12" lengthAdjust="spacingAndGlyphs" textLength="53" x="516" y="672.1387">kwhdays</text><line style="stroke:#A80036;stroke-width:1.0;" x1="478.5" x2="606.5" y1="676.9688" y2="676.9688"/><text fill="#000000" font-family="sans-serif" font-size="10" lengthAdjust="spacingAndGlyphs" textLength="33" x="483.5" y="688.251">step17</text><text fill="#000000" font-family="sans-serif" font-size="10" lengthAdjust="spacingAndGlyphs" textLength="75" x="526.5" y="688.251">UpdateKwhday</text><line style="stroke:#A80036;stroke-width:1.0;" x1="521.5" x2="521.5" y1="676.9688" y2="692.6094"/><rect fill="#FEFECE" filter="url(#f18co84u74dm9f)" height="33.6094" style="stroke:#A80036;stroke-width:1.5;" width="142" x="657.5" y="659"/><text fill="#000000" font-family="sans-serif" font-size="12" lengthAdjust="spacingAndGlyphs" textLength="71" x="693" y="672.1387">kwhmonths</text><line style="stroke:#A80036;stroke-width:1.0;" x1="657.5" x2="799.5" y1="676.9688" y2="676.9688"/><text fill="#000000" font-family="sans-serif" font-size="10" lengthAdjust="spacingAndGlyphs" textLength="33" x="662.5" y="688.251">step18</text><text fill="#000000" font-family="sans-serif" font-size="10" lengthAdjust="spacingAndGlyphs" textLength="89" x="705.5" y="688.251">UpdateKwhmonth</text><line style="stroke:#A80036;stroke-width:1.0;" x1="700.5" x2="700.5" y1="676.9688" y2="692.6094"/><!--MD5=[59b8be4d293e460bcf1762a9a86b8a46]
link kwhs.rawKwh to kwhs.processedKwh--><path codeLine="75" d="M347.9155,65.5443 C346.3667,85.1365 343.9804,115.3234 342.1438,138.5553 " fill="none" id="kwhs.rawKwh-to-kwhs.processedKwh" style="stroke:#A80036;stroke-width:1.0;"/><polygon fill="#FFFFFF" points="341.1102,151.6306,345.5706,145.9645,342.056,139.6679,337.5955,145.334,341.1102,151.6306" style="stroke:#A80036;stroke-width:1.0;"/><!--MD5=[c77449ec6404500ab1fe356c3257f123]
link kwhs.processedKwh to monthkwhs.processedNumber--><path codeLine="76" d="M338.5359,192.0522 C337.8487,206.3475 336.9085,225.9022 336.1086,242.542 " fill="none" id="kwhs.processedKwh-to-monthkwhs.processedNumber" style="stroke:#A80036;stroke-width:1.0;"/><polygon fill="#FFFFFF" points="335.4782,255.6545,339.7618,249.8536,336.0546,243.6684,331.771,249.4693,335.4782,255.6545" style="stroke:#A80036;stroke-width:1.0;"/><!--MD5=[30836417d536310cbc573b01f879e37a]
link monthkwhs.processedNumber to monthkwhs.patchedNumber--><path codeLine="77" d="M334.5,296.2365 C334.5,309.5197 334.5,327.2094 334.5,342.5543 " fill="none" id="monthkwhs.processedNumber-to-monthkwhs.patchedNumber" style="stroke:#A80036;stroke-width:1.0;"/><polygon fill="#FFFFFF" points="334.5,355.7936,338.5,349.7936,334.5,343.7936,330.5,349.7936,334.5,355.7936" style="stroke:#A80036;stroke-width:1.0;"/><!--MD5=[9d15a3602ee26845a539150d3bcdd71f]
link chillerhours.coolingLoad to d1--><path codeLine="78" d="M579.5,88.3271 C579.5,107.8412 579.5,130.2606 579.5,146.9782 " fill="none" id="chillerhours.coolingLoad-to-d1" style="stroke:#A80036;stroke-width:1.0;"/><polygon fill="#FFFFFF" points="579.5,159.9851,583.5,153.9851,579.5,147.9851,575.5,153.9851,579.5,159.9851" style="stroke:#A80036;stroke-width:1.0;"/><!--MD5=[10b9f670e59ab9ac945b85cc0cd35dc1]
link kwhs.rawKwh to d1--><path codeLine="79" d="M385.9442,65.5443 C435.3465,92.7156 521.7975,140.2636 560.1873,161.378 " fill="none" id="kwhs.rawKwh-to-d1" style="stroke:#A80036;stroke-width:1.0;"/><polygon fill="#FFFFFF" points="571.6224,167.6673,568.2928,161.2709,561.1078,161.8843,564.4374,168.2806,571.6224,167.6673" style="stroke:#A80036;stroke-width:1.0;"/><!--MD5=[d89b67801df64db7b6f58bc046f2d5b9]
link d1 to chillerhours.R2--><path codeLine="80" d="M580.0542,183.5272 C580.7359,197.7073 581.9229,222.3956 582.8989,242.6975 " fill="none" id="d1-to-chillerhours.R2" style="stroke:#A80036;stroke-width:1.0;"/><polygon fill="#FFFFFF" points="583.5322,255.8688,587.2395,249.6836,582.9559,243.8826,579.2487,250.0678,583.5322,255.8688" style="stroke:#A80036;stroke-width:1.0;"/><!--MD5=[466973490e5353a944d01da85279b175]
link chillerhours.R2 to chillerdays--><path codeLine="81" d="M581.0598,296.2365 C578.8016,309.5197 575.7944,327.2094 573.1858,342.5543 " fill="none" id="chillerhours.R2-to-chillerdays" style="stroke:#A80036;stroke-width:1.0;"/><polygon fill="#FFFFFF" points="570.9351,355.7936,575.8841,350.5489,572.9463,343.9633,567.9973,349.2081,570.9351,355.7936" style="stroke:#A80036;stroke-width:1.0;"/><!--MD5=[526e99f484e84df4a9aa996b4d556d9b]
link chillerhours.R2 to chillermonths--><path codeLine="82" d="M620.521,296.2365 C647.8738,311.6033 685.7237,332.8672 715.465,349.5759 " fill="none" id="chillerhours.R2-to-chillermonths" style="stroke:#A80036;stroke-width:1.0;"/><polygon fill="#FFFFFF" points="726.8368,355.9645,723.565,349.5384,716.3748,350.0869,719.6466,356.513,726.8368,355.9645" style="stroke:#A80036;stroke-width:1.0;"/><!--MD5=[6ff262ee7d3b2362327553372365b3f1]
link monthkwhs.patchedNumber to d2--><path codeLine="83" d="M381.1988,396.0761 C426.8254,415.6913 494.172,444.6441 527.805,459.1031 " fill="none" id="monthkwhs.patchedNumber-to-d2" style="stroke:#A80036;stroke-width:1.0;"/><polygon fill="#FFFFFF" points="539.9934,464.3429,536.061,458.2984,528.969,459.6034,532.9014,465.648,539.9934,464.3429" style="stroke:#A80036;stroke-width:1.0;"/><!--MD5=[b0b16ea7d952e97d8583f970d4362d03]
link chillermonths to d2--><path codeLine="84" d="M715.8012,396.0761 C670.1746,415.6913 602.828,444.6441 569.195,459.1031 " fill="none" id="chillermonths-to-d2" style="stroke:#A80036;stroke-width:1.0;"/><polygon fill="#FFFFFF" points="557.0066,464.3429,564.0986,465.648,568.031,459.6034,560.939,458.2984,557.0066,464.3429" style="stroke:#A80036;stroke-width:1.0;"/><!--MD5=[78b0f27c2b07f660b96b5ce0648c2da9]
link d2 to ratios--><path codeLine="85" d="M542.4322,474.2242 C531.5701,485.3663 508.0287,509.5143 487.6211,530.448 " fill="none" id="d2-to-ratios" style="stroke:#A80036;stroke-width:1.0;"/><polygon fill="#FFFFFF" points="478.5219,539.7816,485.5744,538.2775,486.8985,531.189,479.846,532.6931,478.5219,539.7816" style="stroke:#A80036;stroke-width:1.0;"/><!--MD5=[4db6f4896db29b4ae6276c585dddfb5f]
link d2 to coolingloads--><path codeLine="86" d="M554.5678,474.2242 C566.7795,486.7506 595.0169,515.7158 616.8102,538.0708 " fill="none" id="d2-to-coolingloads" style="stroke:#A80036;stroke-width:1.0;"/><polygon fill="#FFFFFF" points="625.9891,547.4862,624.6649,540.3977,617.6124,538.8937,618.9366,545.9822,625.9891,547.4862" style="stroke:#A80036;stroke-width:1.0;"/><!--MD5=[e7398b6bd13a5c6a4b18073f20dec766]
link ratios to dashboards--><path codeLine="87" d="M380.2691,595.0443 C336.1965,612.0868 280.0895,633.7828 237.4447,650.2732 " fill="none" id="ratios-to-dashboards" style="stroke:#A80036;stroke-width:1.0;"/><polygon fill="#FFFFFF" points="225.234,654.9949,232.2728,656.5616,236.4263,650.6669,229.3875,649.1001,225.234,654.9949" style="stroke:#A80036;stroke-width:1.0;"/><!--MD5=[3d9d20dc2bd6fa6a7c11c8a19402970a]
link ratios to kwhhours--><path codeLine="88" d="M428.3228,595.1839 C415.6276,610.3476 399.875,629.1632 386.8533,644.7169 " fill="none" id="ratios-to-kwhhours" style="stroke:#A80036;stroke-width:1.0;"/><polygon fill="#FFFFFF" points="378.3458,654.8786,385.2645,652.8458,386.0491,645.6776,379.1304,647.7103,378.3458,654.8786" style="stroke:#A80036;stroke-width:1.0;"/><!--MD5=[9bdd0396cbb67baceaee918bcd628718]
link ratios to kwhdays--><path codeLine="89" d="M474.9348,595.1839 C487.771,610.3476 503.6987,629.1632 516.865,644.7169 " fill="none" id="ratios-to-kwhdays" style="stroke:#A80036;stroke-width:1.0;"/><polygon fill="#FFFFFF" points="525.467,654.8786,524.6434,647.7147,517.7137,645.7196,518.5374,652.8835,525.467,654.8786" style="stroke:#A80036;stroke-width:1.0;"/><!--MD5=[b4f977074128504dab23e32184f085d7]
link ratios to kwhmonths--><path codeLine="90" d="M522.4747,595.0443 C566.3887,612.0868 622.2939,633.7828 664.7853,650.2732 " fill="none" id="ratios-to-kwhmonths" style="stroke:#A80036;stroke-width:1.0;"/><polygon fill="#FFFFFF" points="676.952,654.9949,672.8057,649.0951,665.7649,650.6533,669.9113,656.5531,676.952,654.9949" style="stroke:#A80036;stroke-width:1.0;"/><!--MD5=[2ebb024cbe1629ca0752cf9662ceacbf]
link kwhs to monthkwhs--><!--MD5=[9a1e22bceb86f53b5c0ac2b71b1ed690]
link kwhs to chillerhours--><!--MD5=[2681bde96aa2bd9cff6ba36dc6b881ad]
@startuml Collections
' kwhs
abstract kwhs {}
map kwhs.rawKwh {
  step1 => ImportRawKwhToKwh
}
map kwhs.processedKwh {
  step2 => UpdateProcessedKwhToKwh
}

' monthkwhs
abstract monthkwhs {}
map monthkwhs.processedNumber {
  step3 => UpdateProcessedNumberToMonthKwh
}
map monthkwhs.patchedNumber {
  step4 => UpdatePatchedNumberToMonthKwh
}

diamond d1

' chillerhours
abstract chillerhours {}
map chillerhours.coolingLoad {
  step5 => ImportTxtChillerdata
  step6 => ImportExcelChillerdata
  step7 => Import3PPChillerdata
  step8 => ImportHERChillerdata
}
map chillerhours.R2 {
  step9 => UpdateR2ToChillerHour
}

map chillerdays {
  step10 => UpdateChillerday
}

map chillermonths {
  step11 => UpdateChillermonth
}

diamond d2

map ratios {
  step12 => ImportExcelRatio
  step13 => ImportSqlRatio
}

map coolingloads {
  step14 => UpdateCoolingLoad
}

map dashboards {
  step15 => UpdateDashboard
}

map kwhhours {
  step16 => UpdateKwhhour
}

map kwhdays {
  step17 => UpdateKwhday
}

map kwhmonths {
  step18 => UpdateKwhmonth
}

' kwhs *-> kwhs.rawKwh
' kwhs *-> kwhs.processedKwh
' monthkwhs *-> monthkwhs.processedNumber
' monthkwhs *-> monthkwhs.patchedNumber
' chillerhours *-> chillerhours.coolingLoad
' chillerhours *-> chillerhours.R2

kwhs.rawKwh - -o kwhs.processedKwh
kwhs.processedKwh - -o monthkwhs.processedNumber
monthkwhs.processedNumber - -o monthkwhs.patchedNumber
chillerhours.coolingLoad - -o d1
kwhs.rawKwh - -o d1
d1 - -o chillerhours.R2
chillerhours.R2 - -o chillerdays
chillerhours.R2 - -o chillermonths
monthkwhs.patchedNumber - -o d2
chillermonths - -o d2
d2 - -o ratios
d2 - -o coolingloads
ratios - -o dashboards
ratios - -o kwhhours
ratios - -o kwhdays
ratios - -o kwhmonths
@enduml

@startuml Collections
abstract kwhs {}
map kwhs.rawKwh {
  step1 => ImportRawKwhToKwh
}
map kwhs.processedKwh {
  step2 => UpdateProcessedKwhToKwh
}

abstract monthkwhs {}
map monthkwhs.processedNumber {
  step3 => UpdateProcessedNumberToMonthKwh
}
map monthkwhs.patchedNumber {
  step4 => UpdatePatchedNumberToMonthKwh
}

diamond d1

abstract chillerhours {}
map chillerhours.coolingLoad {
  step5 => ImportTxtChillerdata
  step6 => ImportExcelChillerdata
  step7 => Import3PPChillerdata
  step8 => ImportHERChillerdata
}
map chillerhours.R2 {
  step9 => UpdateR2ToChillerHour
}

map chillerdays {
  step10 => UpdateChillerday
}

map chillermonths {
  step11 => UpdateChillermonth
}

diamond d2

map ratios {
  step12 => ImportExcelRatio
  step13 => ImportSqlRatio
}

map coolingloads {
  step14 => UpdateCoolingLoad
}

map dashboards {
  step15 => UpdateDashboard
}

map kwhhours {
  step16 => UpdateKwhhour
}

map kwhdays {
  step17 => UpdateKwhday
}

map kwhmonths {
  step18 => UpdateKwhmonth
}


kwhs.rawKwh - -o kwhs.processedKwh
kwhs.processedKwh - -o monthkwhs.processedNumber
monthkwhs.processedNumber - -o monthkwhs.patchedNumber
chillerhours.coolingLoad - -o d1
kwhs.rawKwh - -o d1
d1 - -o chillerhours.R2
chillerhours.R2 - -o chillerdays
chillerhours.R2 - -o chillermonths
monthkwhs.patchedNumber - -o d2
chillermonths - -o d2
d2 - -o ratios
d2 - -o coolingloads
ratios - -o dashboards
ratios - -o kwhhours
ratios - -o kwhdays
ratios - -o kwhmonths
@enduml

PlantUML version 1.2020.22(Sun Dec 06 09:36:27 UTC 2020)
(GPL source distribution)
Java Runtime: OpenJDK Runtime Environment
JVM: OpenJDK 64-Bit Server VM
Default Encoding: UTF-8
Language: en
Country: null
--></g></svg>